
<svg version="1.1" xmlns="http://www.w3.org/2000/svg" xmlns:xlink="http://www.w3.org/1999/xlink" xml:space="preserve"><symbol id="addtracks" viewBox="0 0 256 256" fill="currentColor"><path  d="M118.9,10.1c-24.2,2.5-44,10-62.4,23.8c-5.8,4.3-18.4,16.9-22.7,22.7C21.3,73.3,13.6,92,10.6,113.4c-0.8,5.4-0.8,23.6,0,29.1c3,21.4,10.8,40.3,23.3,56.8c4.3,5.8,13.1,14.9,19.1,19.8c23.8,19.6,55,29.3,85.3,26.4c27.4-2.6,51.9-13.8,71.7-33c20.5-19.9,32.9-45.7,35.6-74.3c2.8-30.2-6.9-61.5-26.4-85.3c-18.8-22.8-44.8-37.5-74.6-42.1C139.8,10.3,122.9,9.7,118.9,10.1z M159.5,61.9c2.1,1.2,3.5,3.6,3.5,6c0,1.5-3.6,13.1-12.7,40.3c-14.1,42.4-13.9,42-19.2,45.9c-8.6,6.3-19.8,5.5-27.3-1.9c-11.4-11.4-6-30.9,9.6-35c5.1-1.3,10-0.7,14.9,1.8c1.8,0.9,2.5,1.1,2.6,0.6c0.1-0.3,3.4-10.3,7.3-22.2l7.1-21.5h-16h-16l-11.7,35.1c-12.5,37.6-12.9,38.4-17.3,42.2c-6.6,5.9-16.6,6.9-23.9,2.7c-11.9-7-14.3-22.8-5-32.7c6.6-6.9,16.1-8.6,24.5-4.3c1.5,0.7,2.7,1.3,2.8,1.3c0.1,0,4.4-12.5,9.5-27.9c8.8-26.3,9.4-28,10.9-29.3c0.9-0.7,1.7-1.4,1.7-1.5c0.2-0.2,49.9-0.6,51.5-0.5C157.4,61,158.7,61.4,159.5,61.9z M178.6,133.6c3.4,2.3,3.5,2.6,3.6,13.3l0.1,9.6h9.3c8.4,0,9.5,0.1,10.8,0.9c5.5,3.3,4.3,11.6-1.9,13.3c-1,0.3-5.5,0.5-10,0.5h-8.2v8.8c0,9.6-0.2,10.8-2.7,13.1c-3.5,3.3-9.3,2.2-11.3-2.2c-0.6-1.3-0.7-3.2-0.7-10.6v-9l-9.3-0.1c-8.9-0.1-9.5-0.2-11.1-1.2c-2-1.2-3.6-3.9-3.6-6.2c0-2.3,1.8-5.4,3.7-6.4c1.4-0.8,2.7-0.9,10.9-0.9h9.3l0.1-9.8c0.1-9.2,0.2-9.9,1.2-11.2C170.9,132.5,175.7,131.6,178.6,133.6z"/></symbol></svg>

