<svg width="69" height="69" viewBox="0 0 69 69" fill="none" xmlns="http://www.w3.org/2000/svg">
<mask id="mask0_5_44" style="mask-type:luminance" maskUnits="userSpaceOnUse" x="0" y="0" width="69" height="69">
<path fill-rule="evenodd" clip-rule="evenodd" d="M0.106663 0.255997H68.5067V68.656H0.106663V0.255997Z" fill="white"/>
</mask>
<g mask="url(#mask0_5_44)">
<path d="M33.0667 37.5152V52.3726C32.1655 52.0536 31.2111 51.8464 30.2008 51.8464C25.4535 51.8464 21.6022 55.6976 21.6022 60.4449C21.6022 65.1947 25.4535 69.0434 30.2008 69.0434C34.948 69.0434 38.7993 65.1947 38.7993 60.4449V44.5075L46.2723 46.002L47.3978 40.382L33.0667 37.5152ZM30.2008 63.3108C28.6169 63.3108 27.3349 62.0296 27.3349 60.4449C27.3349 58.8636 28.6169 57.579 30.2008 57.579C31.7846 57.579 33.0667 58.8636 33.0667 60.4449C33.0667 62.0296 31.7846 63.3108 30.2008 63.3108Z" fill="white"/>
<path d="M63.1615 34.6493V28.9167C63.1615 13.0911 50.3342 0.255241 34.5 0.255241C18.6684 0.255241 5.83858 13.0911 5.83858 28.9167V34.6493C2.68637 34.6493 0.105949 37.2297 0.105949 40.382V57.579C0.105949 60.7304 2.68636 63.3108 5.83858 63.3108H15.8705V34.6493H11.5712V28.9167C11.5704 16.2571 21.8344 5.98787 34.5 5.98787C47.1648 5.98787 57.4297 16.2571 57.4297 28.9176V34.6493H53.1304V63.3108H63.1615C66.3137 63.3108 68.8941 60.7304 68.8941 57.579V40.382C68.8941 37.2297 66.3137 34.6493 63.1615 34.6493ZM10.1378 57.579H5.83858V40.382H10.1378V57.579ZM63.1615 57.579H58.8622V40.382H63.1615V57.579Z" fill="white"/>
</g>
</svg>
