<svg xmlns="http://www.w3.org/2000/svg" xmlns:xlink="http://www.w3.org/1999/xlink" ><symbol id="song-svg" viewBox="0 0 27 33.75"  fill="currentColor"><path d="M14.008,16.756c-0.047-0.691,0.514-1.404,1.38-1.733c0.483-0.451,1.023-0.842,1.612-1.153V8.381l-7,1.271   c0,1.895,0,7.363,0,8.188c0,1-0.483,1.713-1.55,2.041c-1.077,0.332-2.149-0.055-2.398-0.861c-0.248-0.807,0.423-1.73,1.499-2.061   C8.065,16.801,8.576,16.81,9,16.947V7.803l9-1.637c0,0,0,4.395,0,7.27C18.783,13.158,19.622,13,20.5,13   c2.07,0,3.944,0.839,5.301,2.194C25.923,14.479,26,13.75,26,13c0-7.18-5.82-13-13-13C5.82,0,0,5.82,0,13s5.82,13,13,13   c0.749,0,1.479-0.077,2.194-0.199C13.838,24.443,13,22.57,13,20.5C13,19.135,13.371,17.858,14.008,16.756z"/><path d="M20.5,14c-3.59,0-6.5,2.91-6.5,6.5s2.91,6.5,6.5,6.5c3.59,0,6.5-2.91,6.5-6.5S24.09,14,20.5,14z M25,21h-4v4h-1v-4h-4v-1h4   v-4h1v4h4V21z"/></symbol></svg>