<svg width="182" height="49" viewBox="0 0 182 49" fill="none" xmlns="http://www.w3.org/2000/svg">
<g opacity="0.5">
<g clip-path="url(#clip0_6_230)">
<path d="M89.5822 18.4008V28.846H88.8361V18.4008H89.5822ZM87.1201 28.8957H87.8662V19.4204H87.1201V28.8957ZM85.429 32.1785H86.175V16.5356H85.429V32.1785ZM83.713 28.3984H84.4591V19.4951H83.713V28.3984ZM81.997 34.5909H82.7431V14.2724H81.997V34.5909ZM80.3058 26.5331H81.0519V17.7293H80.3058V26.5331ZM78.5898 35.0137H79.3359V11.0643H78.5898V35.0137ZM76.8987 28.7217H77.6448V18.5749H76.8987V28.7217ZM75.1827 46.1801H75.9288V5.17019H75.1827V46.1801ZM73.4916 35.6354H74.2377V12.9295H73.4916V35.6354ZM71.7756 27.0057H72.5217V18.2267H71.7756V27.0057ZM70.0845 28.1745H70.8305V18.1521H70.0845V28.1745ZM68.3685 41.5792H69.1145V7.40845H68.3685V41.5792ZM66.6525 27.2046H67.3985V16.5356H66.6525V27.2046ZM64.9613 25.8119H65.7074V18.9479H64.9613V25.8119ZM63.2453 25.9114H63.9914V19.122H63.2453V25.9114ZM61.5542 24.7674H62.3003V20.7634H61.5542V24.7674ZM59.8382 26.5829H60.5843V19.0723H59.8382V26.5829ZM58.1471 26.0357H58.8932V19.9178H58.1471V26.0357ZM56.4311 26.359H57.1772V19.6194H56.4311V26.359ZM54.7399 26.4088H55.486V20.2163H54.7399V26.4088ZM53.0239 37.7493H53.77V10.2684H53.0239V37.7493ZM51.3328 46.8516H52.0789V2.31019H51.3328V46.8516ZM49.6168 35.138H50.3629V8.75141H49.6168V35.138ZM47.9008 24.9415H48.6469V18.9479H47.9008V24.9415ZM46.2097 25.2648H46.9558V18.4008H46.2097V25.2648ZM44.4937 25.9114H45.2398V18.5251H44.4937V25.9114ZM42.8026 33.621H43.5486V14.0238H42.8026V33.621ZM41.0866 35.3867H41.8326V10.1938H41.0866V35.3867ZM39.3954 36.9037H40.1415V6.51315H39.3954V36.9037ZM37.6794 32.1785H38.4255V10.8156H37.6794V32.1785ZM35.9883 23.5985H36.7344V21.1862H35.9883V23.5985ZM34.2723 25.2648H35.0184V18.9479H34.2723V25.2648ZM32.5563 41.7533H33.3024V0.619064H32.5563V41.7533ZM30.8652 27.0057H31.6113V17.5801H30.8652V27.0057ZM29.1492 25.6876H29.8953V18.9728H29.1492V25.6876ZM27.458 25.414H28.2041V19.1966H27.458V25.414ZM25.742 24.1954H26.4881V19.6194H25.742V24.1954ZM24.0509 24.8171H24.797V19.5448H24.0509V24.8171ZM22.3349 25.7373H23.081V19.3458H22.3349V25.7373ZM20.6438 27.1051H21.3899V17.7293H20.6438V27.1051ZM18.9278 36.8291H19.6739V6.31419H18.9278V36.8291ZM17.2367 27.1549H17.9827V17.605H17.2367V27.1549ZM15.5207 26.1352H16.2667V17.5801H15.5207L15.5207 26.1352ZM13.8047 27.5279H14.5507V16.1874H13.8047V27.5279ZM12.1135 33.0241H12.8596V12.8798H12.1135V33.0241ZM10.3975 37.1524H11.1436V4.54845H10.3975V37.1524ZM8.7064 26.4585H9.45249V18.6495H8.7064V26.4585ZM6.9904 30.7112H7.73649V13.4269H6.9904V30.7112ZM5.29927 27.0057H6.04536V17.7791H5.29927V27.0057ZM3.58328 29.6916H4.32936V15.6651H3.58328L3.58328 29.6916ZM1.89215 27.8015H2.63823V17.7293H1.89215L1.89215 27.8015ZM0.176147 25.8119H0.922234V18.9479H0.176147V25.8119Z" fill="white"/>
</g>
<g clip-path="url(#clip1_6_230)">
<path d="M181.88 18.9764V29.7588H181.109V18.9764H181.88ZM179.338 29.8102H180.108V20.029H179.338V29.8102ZM177.592 33.1989H178.362V17.051H177.592V33.1989ZM175.821 29.2967H176.591V20.106H175.821V29.2967ZM174.049 35.6891H174.82V14.7148H174.049V35.6891ZM172.304 27.3713H173.074V18.2832H172.304V27.3713ZM170.532 36.1256H171.302V11.403H170.532V36.1256ZM168.787 29.6305H169.557V19.1561H168.787V29.6305ZM167.015 47.6525H167.785V5.31867H167.015V47.6525ZM165.269 36.7674H166.04V13.3285H165.269V36.7674ZM163.498 27.8591H164.268V18.7967H163.498V27.8591ZM161.752 29.0657H162.523V18.7197H161.752V29.0657ZM159.981 42.9031H160.751V7.62919H159.981V42.9031ZM158.21 28.0644H158.98V17.051H158.21V28.0644ZM156.464 26.6268H157.234V19.5412H156.464V26.6268ZM154.692 26.7295H155.463V19.7209H154.692V26.7295ZM152.947 25.5485H153.717V21.4153H152.947V25.5485ZM151.175 27.4226H151.945V19.6696H151.175V27.4226ZM149.43 26.8578H150.2V20.5424H149.43V26.8578ZM147.658 27.1916H148.428V20.2344H147.658V27.1916ZM145.912 27.2429H146.683V20.8505H145.912V27.2429ZM144.141 38.9495H144.911V10.5815H144.141V38.9495ZM142.395 48.3456H143.166V2.36635H142.395V48.3456ZM140.624 36.2539H141.394V9.0155H140.624V36.2539ZM138.853 25.7282H139.623V19.5412H138.853V25.7282ZM137.107 26.062H137.877V18.9764H137.107V26.062ZM135.335 26.7295H136.106V19.1048H135.335V26.7295ZM133.59 34.6879H134.36V14.4581H133.59V34.6879ZM131.818 36.5107H132.588V10.5045H131.818V36.5107ZM130.073 38.0767H130.843V6.70498H130.073V38.0767ZM128.301 33.1989H129.071V11.1463H128.301V33.1989ZM126.555 24.3419H127.326V21.8517H126.555V24.3419ZM124.784 26.062H125.554V19.5412H124.784V26.062ZM123.013 43.0828H123.783V0.620621H123.013V43.0828ZM121.267 27.8591H122.037V18.1292H121.267V27.8591ZM119.496 26.4984H120.266V19.5669H119.496V26.4984ZM117.75 26.216H118.52V19.7979H117.75V26.216ZM115.978 24.9581H116.749V20.2344H115.978V24.9581ZM114.233 25.5999H115.003V20.1573H114.233V25.5999ZM112.461 26.5498H113.231V19.952H112.461V26.5498ZM110.716 27.9617H111.486V18.2832H110.716V27.9617ZM108.944 37.9997H109.714V6.49961H108.944V37.9997ZM107.198 28.0131H107.969V18.1549H107.198V28.0131ZM105.427 26.9605H106.197V18.1292H105.427L105.427 26.9605ZM103.656 28.3982H104.426V16.6916H103.656V28.3982ZM101.91 34.0718H102.68V13.2771H101.91V34.0718ZM100.139 38.3334H100.909V4.67686H100.139V38.3334ZM98.3928 27.2943H99.163V19.2331H98.3928V27.2943ZM96.6214 31.6842H97.3916V13.8419H96.6214V31.6842ZM94.8757 27.8591H95.6458V18.3346H94.8757V27.8591ZM93.1043 30.6317H93.8745V16.1524H93.1043L93.1043 30.6317ZM91.3586 28.6806H92.1287V18.2832H91.3586L91.3586 28.6806ZM89.5872 26.6268H90.3573V19.5412H89.5872V26.6268Z" fill="white"/>
</g>
</g>
<defs>
<clipPath id="clip0_6_230">
<rect width="89.544" height="46.464" fill="white" transform="translate(0.186584 0.568024)"/>
</clipPath>
<clipPath id="clip1_6_230">
<rect width="92.352" height="47.592" fill="white" transform="translate(89.5866 0.568024)"/>
</clipPath>
</defs>
</svg>
